<?xml version="1.0" encoding="UTF-8"?>
<svg xmlns="http://www.w3.org/2000/svg" xmlns:xlink="http://www.w3.org/1999/xlink" viewBox="0 0 1500 1500" version="1.1">
<g id="surface1">
<path style=" stroke:none;fill-rule:evenodd;fill:rgb(18.039216%,9.411765%,41.568627%);fill-opacity:1;" d="M 476.871094 631.859375 L 754.179688 776.949219 L 807.144531 749.226562 L 1036.898438 628.953125 L 1034.015625 775.628906 L 750.605469 925.605469 L 478.300781 770.515625 Z M 476.871094 631.859375 "/>
<path style=" stroke:none;fill-rule:evenodd;fill:rgb(18.039216%,9.411765%,41.568627%);fill-opacity:1;" d="M 473.410156 438.039062 L 754.738281 585.230469 L 1036.066406 437.3125 L 1036.066406 580.875 L 751.113281 736.039062 L 474.859375 578.699219 Z M 473.410156 438.039062 "/>
<path style=" stroke:none;fill-rule:evenodd;fill:rgb(18.039216%,9.411765%,41.568627%);fill-opacity:1;" d="M 477.386719 826.613281 L 754.695312 971.699219 L 1032 825.898438 L 1032 967.414062 L 751.121094 1120.359375 L 478.816406 965.269531 Z M 477.386719 826.613281 "/>
<path style=" stroke:none;fill-rule:evenodd;fill:rgb(18.039216%,9.411765%,41.568627%);fill-opacity:1;" d="M 476.871094 1018.371094 L 754.179688 1163.453125 L 1031.488281 1017.65625 L 1031.488281 1159.171875 L 750.605469 1312.113281 L 478.300781 1157.023438 Z M 476.871094 1018.371094 "/>
<path style=" stroke:none;fill-rule:evenodd;fill:rgb(7.45098%,77.647059%,100%);fill-opacity:1;" d="M 366.476562 402.265625 L 750.558594 210.914062 L 1133.523438 401.792969 L 750.558594 599.699219 Z M 366.476562 402.265625 "/>
<path style=" stroke:none;fill-rule:evenodd;fill:rgb(7.45098%,77.647059%,100%);fill-opacity:1;" d="M 1086.171875 606.246094 C 1060.769531 605.90625 1058.914062 685.503906 1058.878906 710.46875 C 1058.875 712.226562 1116.558594 713.75 1116.585938 710.640625 C 1116.75 689.390625 1115.183594 606.628906 1086.171875 606.246094 Z M 1086.171875 606.246094 "/>
<path style="fill-rule:evenodd;fill:rgb(18.039216%,9.411765%,41.568627%);fill-opacity:1;stroke-width:25;stroke-linecap:round;stroke-linejoin:round;stroke:rgb(7.45098%,77.647059%,100%);stroke-opacity:1;stroke-miterlimit:4;" d="M 2172.859375 824.21875 L 2173.257812 1235.976562 " transform="matrix(0.5,0,0,0.5,0,0)"/>
</g>
</svg>
